# ProBuilder 6.0.5
# https://unity3d.com/unity/features/worldbuilding/probuilder
# 01.07.2025 15:27:50

mtllib ./ob_Marble_railing_CORRECT.mtl
o ob_Marble railing CORRECT

g ob_Marble railing (3)
v 0.1324992 0.8559678 -1.344376
v 0.1787195 0.8559678 -2.688848
v 0.1324992 0.8559678 -2.688943
v 0.1787195 0.8559678 -1.344376
v 0.1324992 0.8559678 9.643554E-05
v 0.1787195 0.8559678 9.643554E-05
v 0.1324992 0.8559678 1.344567
v 0.1787195 0.8559678 1.344567
v 0.1324992 0.8559678 2.689039
v 0.1787195 0.8559678 2.689039
v -0.1787195 0.8559678 1.344567
v -0.1787195 0.8559678 2.689039
v -0.1324993 0.8559678 2.689039
v -0.1324993 0.8559678 1.344567
v -0.1787195 0.8559678 9.643554E-05
v -0.1324993 0.8559678 9.643554E-05
v -0.1787195 0.8559678 -1.344376
v -0.1324993 0.8559678 -1.344376
v -0.1787195 0.8559678 -2.688848
v -0.1324993 0.8559678 -2.688943
v -0.1324993 0.8359805 2.689039
v -0.1324993 0.8359807 1.344567
v -0.1324993 0.8359807 9.643554E-05
v -0.1324993 0.8359807 -1.344376
v -0.1324993 0.8359807 -2.689039
v 0.1324992 0.8359805 2.689039
v 0.1324992 0.8359807 1.344567
v 0.1324992 0.8359807 9.643554E-05
v 0.1324992 0.8359807 -1.344376
v 0.1324992 0.8359807 -2.689039
v -0.1787195 0.9514924 2.689039
v -0.1556119 0.9681732 1.344567
v -0.1556119 0.9681732 2.665931
v -0.1787195 0.9514924 1.344567
v -0.1556119 0.9681732 9.651184E-05
v -0.1787195 0.9514924 9.650049E-05
v -0.1556119 0.9681732 -1.344376
v -0.1787195 0.9514924 -1.344376
v -0.1556119 0.9681732 -2.66574
v -0.1787195 0.9514924 -2.688848
v -0.1324993 0.9514924 2.689039
v -0.1324993 0.9681732 2.665931
v 0.1324992 0.9514924 2.689039
v 0.1324992 0.9681732 2.665931
v 0.1787195 0.9514924 2.689039
v 0.1556119 0.9681732 2.665931
v -0.1324993 0.9681732 -2.66574
v -0.1324993 0.9514924 -2.688848
v 0.1324992 0.9681732 -2.66574
v 0.1324992 0.9514924 -2.688848
v 0.1556119 0.9681732 -2.66574
v 0.1787195 0.9514924 -2.688848
v 0.1787195 0.9514924 1.344567
v 0.1556119 0.9681732 1.344567
v 0.1787195 0.9514924 9.650049E-05
v 0.1556119 0.9681732 9.651184E-05
v 0.1787195 0.9514924 -1.344376
v 0.1556119 0.9681732 -1.344376
v 0.1324992 0.9681732 -1.344376
v 0.1324992 0.9681732 9.651184E-05
v -0.1324993 0.9681732 -1.344376
v 0.1324992 0.9681732 1.344567
v -0.1324993 0.9681732 9.651184E-05
v -0.1324993 0.9681732 1.344567

vt 0.2543356 0.7941723
vt 0.0221875 0.785324
vt 0.02232948 0.7932955
vt 0.2543233 0.7861902
vt 0.486321 0.7963154
vt 0.4863624 0.7883366
vt 0.7186347 0.7970519
vt 0.7187241 0.7890713
vt 0.9505346 0.7991544
vt 0.9507685 0.7911816
vt 0.7182049 0.8604261
vt 0.9510874 0.859352
vt 0.9508824 0.8513781
vt 0.7181524 0.8524453
vt 0.4861282 0.8592682
vt 0.4861584 0.8512897
vt 0.2537431 0.8575561
vt 0.2538517 0.8495752
vt 0.02098396 0.8534939
vt 0.02122298 0.8455223
vt 0.949027 0.8485985
vt 0.7181181 0.8489813
vt 0.4861706 0.8478402
vt 0.2539088 0.8461229
vt 0.0230571 0.8427526
vt 0.9487075 0.8019375
vt 0.7185873 0.8005049
vt 0.4863029 0.7997655
vt 0.254351 0.7976254
vt 0.02416256 0.7961065
vt 0.03634354 0.9684753
vt 0.2668456 0.9620137
vt 0.04055624 0.9636191
vt 0.266886 0.9669001
vt 0.4972311 0.9601937
vt 0.4972698 0.965077
vt 0.7275993 0.9583995
vt 0.7276364 0.9632859
vt 0.9538488 0.9565556
vt 0.9581216 0.9613461
vt 0.03558987 0.9599796
vt 0.04044717 0.9596956
vt 0.03527548 0.9142185
vt 0.04012864 0.9144351
vt 0.03590211 0.9057178
vt 0.04018011 0.9105098
vt 0.9539025 0.9526339
vt 0.9587573 0.9528625
vt 0.9535915 0.9073744
vt 0.9584514 0.9070793
vt 0.9534804 0.9034536
vt 0.9576878 0.8985996
vt 0.2663972 0.9037786
vt 0.2664343 0.9086654
vt 0.4967622 0.9019876
vt 0.4968007 0.9068708
vt 0.7271454 0.900165
vt 0.7271857 0.9050511
vt 0.01935929 0.9058213
vt 0.01903602 0.913896
vt 0.01918533 0.9605103
vt 0.01966407 0.9685878
vt 0.7272187 0.9090139
vt 0.496832 0.9108307
vt 0.7275695 0.9544367
vt 0.2664639 0.9126272
vt 0.4971996 0.9562333
vt 0.2668125 0.9580517
vt 0.9748546 0.9065566
vt 0.9743776 0.898412
vt 0.9749953 0.9531831
vt 0.9746675 0.9613249
vt 0.9575581 0.8822303
vt 0.7270119 0.8837973
vt 0.4966329 0.8856197
vt 0.2662728 0.8874108
vt 0.03577244 0.8893492
vt 0.9582528 0.9777149
vt 0.727761 0.9796538
vt 0.4974013 0.9814449
vt 0.2670201 0.9832678
vt 0.03647404 0.9848447

vn 0 -1 0
vn -1 0 0
vn 1 0 0
vn 0 0 1
vn 0 0.004783307 -0.9999886
vn -0.5853047 0.8108134 0
vn 3.019169E-06 0.8108166 0.5853003
vn 0 0.8108181 -0.5852983
vn 0.5853047 0.8108134 0
vn 0 1 0
vn 0.002053002 0 -0.9999979
vn -5.158305E-06 0.0009958582 -0.9999995
vn -0.002053009 0 -0.9999979

usemtl New_Material
f 3/3/1 2/2/1 1/1/1
f 2/2/1 4/4/1 1/1/1
f 1/1/1 4/4/1 5/5/1
f 4/4/1 6/6/1 5/5/1
f 5/5/1 6/6/1 7/7/1
f 6/6/1 8/8/1 7/7/1
f 7/7/1 8/8/1 9/9/1
f 8/8/1 10/10/1 9/9/1
f 13/13/1 12/12/1 11/11/1
f 14/14/1 13/13/1 11/11/1
f 14/14/1 11/11/1 15/15/1
f 16/16/1 14/14/1 15/15/1
f 16/16/1 15/15/1 17/17/1
f 18/18/1 16/16/1 17/17/1
f 18/18/1 17/17/1 19/19/1
f 20/20/1 18/18/1 19/19/1
f 22/22/2 21/21/2 13/13/2
f 14/14/2 22/22/2 13/13/2
f 23/23/2 22/22/2 14/14/2
f 16/16/2 23/23/2 14/14/2
f 24/24/2 23/23/2 16/16/2
f 18/18/2 24/24/2 16/16/2
f 25/25/2 24/24/2 18/18/2
f 20/20/2 25/25/2 18/18/2
f 9/9/3 26/26/3 7/7/3
f 26/26/3 27/27/3 7/7/3
f 7/7/3 27/27/3 5/5/3
f 27/27/3 28/28/3 5/5/3
f 5/5/3 28/28/3 1/1/3
f 28/28/3 29/29/3 1/1/3
f 1/1/3 29/29/3 30/30/3
f 3/3/3 1/1/3 30/30/3
f 13/13/4 21/21/4 9/9/4
f 21/21/4 26/26/4 9/9/4
f 30/30/5 25/25/5 20/20/5
f 3/3/5 30/30/5 20/20/5
f 33/33/6 32/32/6 31/31/6
f 32/32/6 34/34/6 31/31/6
f 32/32/6 35/35/6 34/34/6
f 35/35/6 36/36/6 34/34/6
f 35/35/6 37/37/6 36/36/6
f 37/37/6 38/38/6 36/36/6
f 38/38/6 37/37/6 39/39/6
f 40/40/6 38/38/6 39/39/6
f 31/31/7 41/41/7 33/33/7
f 41/41/7 42/42/7 33/33/7
f 41/41/7 43/43/7 42/42/7
f 43/43/7 44/44/7 42/42/7
f 44/44/7 43/43/7 45/45/7
f 46/46/7 44/44/7 45/45/7
f 39/39/8 47/47/8 40/40/8
f 47/47/8 48/48/8 40/40/8
f 47/47/8 49/49/8 48/48/8
f 49/49/8 50/50/8 48/48/8
f 50/50/8 49/49/8 51/51/8
f 52/52/8 50/50/8 51/51/8
f 45/45/9 53/53/9 46/46/9
f 53/53/9 54/54/9 46/46/9
f 53/53/9 55/55/9 54/54/9
f 55/55/9 56/56/9 54/54/9
f 55/55/9 57/57/9 56/56/9
f 57/57/9 58/58/9 56/56/9
f 57/57/9 52/52/9 58/58/9
f 52/52/9 51/51/9 58/58/9
f 10/59/4 45/45/4 43/43/4
f 9/60/4 10/59/4 43/43/4
f 9/60/4 43/43/4 41/41/4
f 13/61/4 9/60/4 41/41/4
f 13/61/4 41/41/4 12/62/4
f 41/41/4 31/31/4 12/62/4
f 58/58/10 51/51/10 49/49/10
f 59/63/10 58/58/10 49/49/10
f 56/56/10 58/58/10 59/63/10
f 59/63/10 49/49/10 47/47/10
f 60/64/10 56/56/10 59/63/10
f 54/54/10 56/56/10 60/64/10
f 61/65/10 59/63/10 47/47/10
f 60/64/10 59/63/10 61/65/10
f 62/66/10 54/54/10 60/64/10
f 46/46/10 54/54/10 62/66/10
f 44/44/10 46/46/10 62/66/10
f 61/65/10 47/47/10 37/37/10
f 47/47/10 39/39/10 37/37/10
f 61/65/10 37/37/10 35/35/10
f 63/67/10 60/64/10 61/65/10
f 63/67/10 61/65/10 35/35/10
f 62/66/10 60/64/10 63/67/10
f 63/67/10 35/35/10 32/32/10
f 44/44/10 62/66/10 64/68/10
f 64/68/10 62/66/10 63/67/10
f 64/68/10 63/67/10 32/32/10
f 42/42/10 44/44/10 64/68/10
f 64/68/10 32/32/10 33/33/10
f 42/42/10 64/68/10 33/33/10
f 52/52/11 2/70/11 3/69/11
f 50/50/12 52/52/12 3/69/12
f 50/50/12 3/69/12 20/71/12
f 48/48/12 50/50/12 20/71/12
f 48/48/12 20/71/12 40/40/12
f 20/71/13 19/72/13 40/40/13
f 2/73/3 52/52/3 57/57/3
f 4/74/3 2/73/3 57/57/3
f 4/74/3 57/57/3 55/55/3
f 6/75/3 4/74/3 55/55/3
f 6/75/3 55/55/3 53/53/3
f 8/76/3 6/75/3 53/53/3
f 8/76/3 53/53/3 10/77/3
f 53/53/3 45/45/3 10/77/3
f 38/38/2 40/40/2 19/78/2
f 17/79/2 38/38/2 19/78/2
f 17/79/2 15/80/2 38/38/2
f 15/80/2 36/36/2 38/38/2
f 15/80/2 11/81/2 36/36/2
f 11/81/2 34/34/2 36/36/2
f 11/81/2 12/82/2 34/34/2
f 12/82/2 31/31/2 34/34/2

